<svg width="340" height="129" viewBox="0 0 340 129" fill="none" xmlns="http://www.w3.org/2000/svg">
<path d="M34.0001 37.9586C32.1951 35.1984 11.5 3.95858 9.50006 0.95858C7.50012 -2.04142 5.50006 2.95858 5.50006 2.95858C5.50006 2.95858 0.000123978 10.9586 3.00006 14.9586C6 18.9586 19.5001 37.9586 19.5001 37.9586C21.3517 40.9418 21.4385 42.5862 19.5001 45.4586C19.5001 45.4586 8.21433 61.4586 5.00006 65.9586C1.7858 70.4586 2.61976 73.9586 3.00006 74.9586C3.38037 75.9586 8.00006 83.9586 10.0001 81.4586C12.0001 78.9586 32 48.4586 34.0001 45.4586C36.0001 42.4586 35.8051 40.7188 34.0001 37.9586Z" fill="url(#paint0_linear_1_18)"/>
<path d="M54.8954 38.4172C53.0904 35.6569 32.3953 4.41717 30.3954 1.41717C28.3954 -1.58283 26.3954 3.41717 26.3954 3.41717C26.3954 3.41717 20.8954 11.4172 23.8954 15.4172C26.8953 19.4172 40.3954 38.4172 40.3954 38.4172C42.247 41.4004 42.3338 43.0448 40.3954 45.9172C40.3954 45.9172 29.1097 61.9172 25.8954 66.4172C22.6811 70.9172 23.5151 74.4172 23.8954 75.4172C24.2757 76.4172 28.8954 84.4172 30.8954 81.9172C32.8954 79.4172 52.8953 48.9172 54.8954 45.9172C56.8955 42.9172 56.7004 41.1774 54.8954 38.4172Z" fill="url(#paint1_linear_1_18)"/>
<path d="M2 29.4586C2 29.4586 10.5 41.0586 10.5 41.4586C10.5 41.8586 4.83333 50.2919 2 54.4586" stroke="url(#paint2_linear_1_18)" stroke-width="3" stroke-linecap="round"/>
<path d="M8 29.4586C8 29.4586 16.5 41.0586 16.5 41.4586C16.5 41.8586 10.8333 50.2919 8 54.4586" stroke="url(#paint3_linear_1_18)" stroke-width="3" stroke-linecap="round"/>
<path d="M337 30.4585H316C316 30.4585 316.017 25.4586 316 24.4585C315.983 23.4584 316 23.4584 314 23.4585H282C282.69 11.6284 280.824 7.98996 273 7.45851V6.45851H318C326 6.45855 337 12.9584 337 17.4585V30.4585Z" fill="url(#paint4_linear_1_18)"/>
<path d="M191.5 24.4586V7.95859H266C274.501 7.95722 278.715 9.55213 278.5 18.4586V34.4586H327C345 34.4586 342.5 76.4586 327 76.4586H272C259 76.4586 257.5 72.4586 257.5 66.4586V53.9586H277V60.4586H318C321.21 56.4466 321.243 54.0421 318 49.4586C318 49.4586 274 47.9586 267 47.9586C260 47.9586 257.5 43.9586 257.5 38.4586V27.9586C257.642 25.2574 256.961 24.5036 254.5 24.4586H191.5Z" fill="url(#paint5_linear_1_18)"/>
<path d="M71 75.4586V8.95859L108 9.45859L127 50.9586H129.5L148.5 9.45859H186V53.9586C186 57.4586 188 60.9586 192 60.9586H226.5C230.891 60.7211 231.862 58.3449 231.5 50.9586H252V64.9586C252 73.9586 244.5 76.4586 236 76.4586H183C174 76.4586 166 72.9586 166 64.9586V26.4586H162.5L137.5 75.4586H120.5L95 25.4586H91V75.4586H71Z" fill="url(#paint6_linear_1_18)"/>
<path d="M103.77 85.6404H106.833L110.935 95.6532H111.097L115.2 85.6404H118.263V99.4586H115.861V89.9653H115.733L111.914 99.4181H110.119L106.3 89.9451H106.172V99.4586H103.77V85.6404ZM124.623 99.6677C123.966 99.6677 123.375 99.5508 122.849 99.3169C122.327 99.0785 121.913 98.7276 121.607 98.2643C121.306 97.801 121.155 97.2298 121.155 96.5506C121.155 95.9658 121.263 95.4823 121.479 95.0999C121.695 94.7176 121.989 94.4117 122.363 94.1823C122.736 93.9529 123.157 93.7797 123.624 93.6628C124.097 93.5413 124.585 93.4536 125.089 93.3996C125.696 93.3367 126.188 93.2804 126.566 93.231C126.944 93.177 127.218 93.096 127.389 92.9881C127.565 92.8756 127.653 92.7024 127.653 92.4685V92.428C127.653 91.9198 127.502 91.5262 127.2 91.2473C126.899 90.9684 126.465 90.829 125.898 90.829C125.3 90.829 124.825 90.9594 124.475 91.2203C124.128 91.4812 123.894 91.7893 123.773 92.1447L121.492 91.8208C121.672 91.1911 121.969 90.6648 122.383 90.242C122.797 89.8146 123.303 89.4953 123.901 89.2839C124.499 89.068 125.161 88.96 125.885 88.96C126.384 88.96 126.881 89.0185 127.376 89.1354C127.871 89.2524 128.323 89.4458 128.732 89.7157C129.141 89.9811 129.47 90.3432 129.717 90.802C129.969 91.2608 130.095 91.8343 130.095 92.5225V99.4586H127.747V98.0349H127.666C127.518 98.3228 127.308 98.5927 127.039 98.8446C126.773 99.092 126.438 99.2922 126.033 99.4451C125.633 99.5935 125.163 99.6677 124.623 99.6677ZM125.257 97.873C125.748 97.873 126.173 97.7763 126.532 97.5829C126.892 97.385 127.169 97.1241 127.362 96.8002C127.56 96.4763 127.659 96.1232 127.659 95.7409V94.5197C127.583 94.5826 127.452 94.6411 127.268 94.6951C127.088 94.7491 126.886 94.7963 126.661 94.8368C126.436 94.8773 126.213 94.9133 125.993 94.9447C125.772 94.9762 125.581 95.0032 125.419 95.0257C125.055 95.0752 124.729 95.1561 124.441 95.2686C124.153 95.3811 123.926 95.5385 123.759 95.7409C123.593 95.9388 123.51 96.1952 123.51 96.5101C123.51 96.9599 123.674 97.2995 124.002 97.5289C124.331 97.7583 124.749 97.873 125.257 97.873ZM138.486 89.095V90.9842H132.528V89.095H138.486ZM133.999 86.612H136.442V96.3414C136.442 96.6698 136.491 96.9217 136.59 97.0971C136.694 97.268 136.828 97.385 136.995 97.4479C137.161 97.5109 137.346 97.5424 137.548 97.5424C137.701 97.5424 137.841 97.5311 137.966 97.5087C138.097 97.4862 138.196 97.4659 138.263 97.4479L138.675 99.3574C138.545 99.4024 138.358 99.4518 138.115 99.5058C137.877 99.5598 137.584 99.5913 137.238 99.6003C136.626 99.6183 136.075 99.5261 135.585 99.3236C135.094 99.1167 134.705 98.7974 134.417 98.3655C134.134 97.9337 133.995 97.394 133.999 96.7462V86.612ZM141.289 99.4586V89.095H143.657V90.8222H143.765C143.954 90.224 144.278 89.7629 144.737 89.4391C145.2 89.1107 145.728 88.9465 146.322 88.9465C146.457 88.9465 146.608 88.9533 146.774 88.9668C146.945 88.9758 147.087 88.9915 147.199 89.014V91.2608C147.096 91.2248 146.932 91.1933 146.707 91.1663C146.486 91.1348 146.273 91.1191 146.066 91.1191C145.62 91.1191 145.22 91.2158 144.865 91.4092C144.514 91.5981 144.237 91.8613 144.035 92.1986C143.832 92.536 143.731 92.9251 143.731 93.3659V99.4586H141.289ZM149.582 99.4586V89.095H152.024V99.4586H149.582ZM150.81 87.6241C150.423 87.6241 150.09 87.4959 149.811 87.2395C149.532 86.9786 149.393 86.666 149.393 86.3016C149.393 85.9328 149.532 85.6202 149.811 85.3638C150.09 85.1029 150.423 84.9724 150.81 84.9724C151.201 84.9724 151.534 85.1029 151.808 85.3638C152.087 85.6202 152.227 85.9328 152.227 86.3016C152.227 86.666 152.087 86.9786 151.808 87.2395C151.534 87.4959 151.201 87.6241 150.81 87.6241ZM157.293 89.095L159.385 92.9206L161.51 89.095H164.094L160.97 94.2768L164.148 99.4586H161.578L159.385 95.7274L157.212 99.4586H154.621L157.779 94.2768L154.702 89.095H157.293ZM184.152 90.3027H181.629C181.557 89.8889 181.424 89.5223 181.231 89.2029C181.037 88.879 180.797 88.6047 180.509 88.3798C180.221 88.1548 179.892 87.9862 179.524 87.8737C179.159 87.7568 178.766 87.6983 178.343 87.6983C177.592 87.6983 176.926 87.8872 176.346 88.265C175.765 88.6384 175.311 89.1872 174.983 89.9114C174.654 90.6311 174.49 91.5104 174.49 92.5495C174.49 93.6066 174.654 94.4972 174.983 95.2214C175.316 95.9411 175.77 96.4853 176.346 96.8542C176.926 97.2185 177.589 97.4007 178.336 97.4007C178.75 97.4007 179.137 97.3467 179.497 97.2388C179.861 97.1263 180.187 96.9621 180.475 96.7462C180.767 96.5303 181.012 96.2649 181.21 95.9501C181.413 95.6352 181.552 95.2753 181.629 94.8705L184.152 94.884C184.058 95.5407 183.853 96.157 183.538 96.7327C183.228 97.3085 182.821 97.8168 182.317 98.2576C181.813 98.6939 181.224 99.0358 180.549 99.2832C179.874 99.5261 179.126 99.6475 178.302 99.6475C177.088 99.6475 176.004 99.3664 175.05 98.8041C174.097 98.2418 173.345 97.4299 172.797 96.3684C172.248 95.3068 171.974 94.0339 171.974 92.5495C171.974 91.0606 172.25 89.7877 172.803 88.7306C173.357 87.6691 174.11 86.8571 175.064 86.2949C176.017 85.7326 177.097 85.4515 178.302 85.4515C179.072 85.4515 179.787 85.5594 180.448 85.7753C181.109 85.9913 181.698 86.3084 182.216 86.7267C182.733 87.1405 183.158 87.6488 183.491 88.2516C183.828 88.8498 184.049 89.5335 184.152 90.3027ZM191.617 99.661C190.605 99.661 189.728 99.4383 188.986 98.993C188.244 98.5477 187.668 97.9247 187.258 97.1241C186.854 96.3234 186.651 95.3878 186.651 94.3173C186.651 93.2467 186.854 92.3088 187.258 91.5037C187.668 90.6985 188.244 90.0733 188.986 89.628C189.728 89.1827 190.605 88.96 191.617 88.96C192.629 88.96 193.506 89.1827 194.249 89.628C194.991 90.0733 195.564 90.6985 195.969 91.5037C196.378 92.3088 196.583 93.2467 196.583 94.3173C196.583 95.3878 196.378 96.3234 195.969 97.1241C195.564 97.9247 194.991 98.5477 194.249 98.993C193.506 99.4383 192.629 99.661 191.617 99.661ZM191.631 97.7043C192.179 97.7043 192.638 97.5536 193.007 97.2523C193.376 96.9464 193.65 96.5371 193.83 96.0243C194.015 95.5115 194.107 94.9402 194.107 94.3105C194.107 93.6763 194.015 93.1028 193.83 92.59C193.65 92.0727 193.376 91.6611 193.007 91.3552C192.638 91.0494 192.179 90.8964 191.631 90.8964C191.068 90.8964 190.601 91.0494 190.227 91.3552C189.858 91.6611 189.582 92.0727 189.397 92.59C189.217 93.1028 189.127 93.6763 189.127 94.3105C189.127 94.9402 189.217 95.5115 189.397 96.0243C189.582 96.5371 189.858 96.9464 190.227 97.2523C190.601 97.5536 191.068 97.7043 191.631 97.7043ZM201.859 93.3861V99.4586H199.416V89.095H201.751V90.856H201.872C202.11 90.2757 202.491 89.8146 203.012 89.4728C203.539 89.1309 204.189 88.96 204.962 88.96C205.677 88.96 206.3 89.1129 206.831 89.4188C207.367 89.7247 207.78 90.1677 208.073 90.748C208.37 91.3283 208.516 92.0322 208.511 92.8599V99.4586H206.069V93.2377C206.069 92.545 205.889 92.003 205.529 91.6116C205.174 91.2203 204.681 91.0246 204.051 91.0246C203.624 91.0246 203.244 91.1191 202.911 91.308C202.583 91.4924 202.324 91.7601 202.135 92.1109C201.951 92.4618 201.859 92.8869 201.859 93.3861ZM219.945 91.8343L217.719 92.0772C217.656 91.8523 217.546 91.6409 217.388 91.443C217.235 91.245 217.028 91.0854 216.767 90.9639C216.506 90.8425 216.187 90.7817 215.809 90.7817C215.301 90.7817 214.874 90.8919 214.527 91.1124C214.185 91.3328 214.017 91.6184 214.021 91.9692C214.017 92.2706 214.127 92.5158 214.352 92.7047C214.581 92.8936 214.959 93.0488 215.485 93.1702L217.253 93.5481C218.234 93.7595 218.962 94.0946 219.439 94.5534C219.921 95.0122 220.163 95.6127 220.168 96.3549C220.163 97.0071 219.972 97.5829 219.594 98.0822C219.221 98.577 218.702 98.9638 218.036 99.2427C217.37 99.5216 216.605 99.661 215.742 99.661C214.473 99.661 213.452 99.3956 212.679 98.8648C211.905 98.3296 211.444 97.5851 211.295 96.6315L213.677 96.4021C213.785 96.8699 214.015 97.223 214.365 97.4614C214.716 97.6998 215.173 97.819 215.735 97.819C216.315 97.819 216.781 97.6998 217.132 97.4614C217.487 97.223 217.665 96.9284 217.665 96.5776C217.665 96.2807 217.55 96.0355 217.321 95.8421C217.096 95.6487 216.745 95.5003 216.268 95.3968L214.5 95.0257C213.506 94.8188 212.771 94.4702 212.294 93.9799C211.817 93.4851 211.581 92.8599 211.586 92.1042C211.581 91.4655 211.754 90.9122 212.105 90.4444C212.46 89.9721 212.953 89.6077 213.583 89.3513C214.217 89.0905 214.948 88.96 215.776 88.96C216.99 88.96 217.946 89.2186 218.643 89.7359C219.345 90.2532 219.779 90.9527 219.945 91.8343ZM228.117 89.095V90.9842H222.159V89.095H228.117ZM223.63 86.612H226.073V96.3414C226.073 96.6698 226.122 96.9217 226.221 97.0971C226.325 97.268 226.459 97.385 226.626 97.4479C226.792 97.5109 226.977 97.5424 227.179 97.5424C227.332 97.5424 227.472 97.5311 227.598 97.5087C227.728 97.4862 227.827 97.4659 227.894 97.4479L228.306 99.3574C228.176 99.4024 227.989 99.4518 227.746 99.5058C227.508 99.5598 227.215 99.5913 226.869 99.6003C226.257 99.6183 225.706 99.5261 225.216 99.3236C224.725 99.1167 224.336 98.7974 224.049 98.3655C223.765 97.9337 223.626 97.394 223.63 96.7462V86.612ZM230.92 99.4586V89.095H233.288V90.8222H233.396C233.585 90.224 233.909 89.7629 234.368 89.4391C234.831 89.1107 235.359 88.9465 235.953 88.9465C236.088 88.9465 236.239 88.9533 236.405 88.9668C236.576 88.9758 236.718 88.9915 236.83 89.014V91.2608C236.727 91.2248 236.563 91.1933 236.338 91.1663C236.117 91.1348 235.904 91.1191 235.697 91.1191C235.251 91.1191 234.851 91.2158 234.496 91.4092C234.145 91.5981 233.868 91.8613 233.666 92.1986C233.463 92.536 233.362 92.9251 233.362 93.3659V99.4586H230.92ZM245.818 95.0999V89.095H248.261V99.4586H245.893V97.6166H245.785C245.551 98.1969 245.166 98.6714 244.631 99.0403C244.1 99.4091 243.446 99.5935 242.667 99.5935C241.988 99.5935 241.388 99.4428 240.866 99.1415C240.349 98.8356 239.944 98.3925 239.652 97.8123C239.359 97.2275 239.213 96.5213 239.213 95.6937V89.095H241.655V95.3158C241.655 95.9726 241.835 96.4943 242.195 96.8812C242.555 97.268 243.027 97.4614 243.612 97.4614C243.972 97.4614 244.321 97.3737 244.658 97.1983C244.995 97.0229 245.272 96.762 245.488 96.4156C245.708 96.0648 245.818 95.6262 245.818 95.0999ZM256.053 99.661C255.019 99.661 254.13 99.4338 253.388 98.9795C252.65 98.5252 252.081 97.8977 251.681 97.0971C251.285 96.2919 251.087 95.3653 251.087 94.3173C251.087 93.2647 251.29 92.3358 251.694 91.5307C252.099 90.721 252.671 90.0913 253.408 89.6415C254.15 89.1872 255.028 88.96 256.04 88.96C256.881 88.96 257.625 89.1152 258.273 89.4256C258.925 89.7314 259.445 90.1655 259.832 90.7278C260.218 91.2855 260.439 91.9378 260.493 92.6844H258.158C258.064 92.1851 257.839 91.7691 257.484 91.4362C257.133 91.0989 256.663 90.9302 256.073 90.9302C255.574 90.9302 255.135 91.0651 254.758 91.335C254.38 91.6004 254.085 91.9827 253.874 92.482C253.667 92.9813 253.563 93.5796 253.563 94.2768C253.563 94.983 253.667 95.5902 253.874 96.0985C254.081 96.6023 254.371 96.9914 254.744 97.2658C255.122 97.5356 255.565 97.6706 256.073 97.6706C256.433 97.6706 256.755 97.6031 257.038 97.4682C257.326 97.3287 257.567 97.1286 257.76 96.8677C257.954 96.6068 258.086 96.2897 258.158 95.9163H260.493C260.434 96.6495 260.218 97.2995 259.845 97.8663C259.472 98.4285 258.963 98.8693 258.32 99.1887C257.677 99.5036 256.921 99.661 256.053 99.661ZM268.433 89.095V90.9842H262.476V89.095H268.433ZM263.947 86.612H266.389V96.3414C266.389 96.6698 266.438 96.9217 266.537 97.0971C266.641 97.268 266.776 97.385 266.942 97.4479C267.109 97.5109 267.293 97.5424 267.496 97.5424C267.648 97.5424 267.788 97.5311 267.914 97.5087C268.044 97.4862 268.143 97.4659 268.211 97.4479L268.622 99.3574C268.492 99.4024 268.305 99.4518 268.062 99.5058C267.824 99.5598 267.532 99.5913 267.185 99.6003C266.573 99.6183 266.022 99.5261 265.532 99.3236C265.042 99.1167 264.653 98.7974 264.365 98.3655C264.081 97.9337 263.942 97.394 263.947 96.7462V86.612ZM271.236 99.4586V89.095H273.679V99.4586H271.236ZM272.464 87.6241C272.077 87.6241 271.744 87.4959 271.466 87.2395C271.187 86.9786 271.047 86.666 271.047 86.3016C271.047 85.9328 271.187 85.6202 271.466 85.3638C271.744 85.1029 272.077 84.9724 272.464 84.9724C272.855 84.9724 273.188 85.1029 273.463 85.3638C273.742 85.6202 273.881 85.9328 273.881 86.3016C273.881 86.666 273.742 86.9786 273.463 87.2395C273.188 87.4959 272.855 87.6241 272.464 87.6241ZM281.471 99.661C280.459 99.661 279.582 99.4383 278.839 98.993C278.097 98.5477 277.521 97.9247 277.112 97.1241C276.707 96.3234 276.505 95.3878 276.505 94.3173C276.505 93.2467 276.707 92.3088 277.112 91.5037C277.521 90.6985 278.097 90.0733 278.839 89.628C279.582 89.1827 280.459 88.96 281.471 88.96C282.483 88.96 283.36 89.1827 284.102 89.628C284.844 90.0733 285.418 90.6985 285.823 91.5037C286.232 92.3088 286.437 93.2467 286.437 94.3173C286.437 95.3878 286.232 96.3234 285.823 97.1241C285.418 97.9247 284.844 98.5477 284.102 98.993C283.36 99.4383 282.483 99.661 281.471 99.661ZM281.484 97.7043C282.033 97.7043 282.492 97.5536 282.861 97.2523C283.23 96.9464 283.504 96.5371 283.684 96.0243C283.868 95.5115 283.961 94.9402 283.961 94.3105C283.961 93.6763 283.868 93.1028 283.684 92.59C283.504 92.0727 283.23 91.6611 282.861 91.3552C282.492 91.0494 282.033 90.8964 281.484 90.8964C280.922 90.8964 280.454 91.0494 280.081 91.3552C279.712 91.6611 279.435 92.0727 279.251 92.59C279.071 93.1028 278.981 93.6763 278.981 94.3105C278.981 94.9402 279.071 95.5115 279.251 96.0243C279.435 96.5371 279.712 96.9464 280.081 97.2523C280.454 97.5536 280.922 97.7043 281.484 97.7043ZM291.712 93.3861V99.4586H289.27V89.095H291.604V90.856H291.726C291.964 90.2757 292.344 89.8146 292.866 89.4728C293.392 89.1309 294.042 88.96 294.816 88.96C295.531 88.96 296.154 89.1129 296.685 89.4188C297.22 89.7247 297.634 90.1677 297.926 90.748C298.223 91.3283 298.369 92.0322 298.365 92.8599V99.4586H295.922V93.2377C295.922 92.545 295.743 92.003 295.383 91.6116C295.027 91.2203 294.535 91.0246 293.905 91.0246C293.478 91.0246 293.098 91.1191 292.765 91.308C292.436 91.4924 292.178 91.7601 291.989 92.1109C291.804 92.4618 291.712 92.8869 291.712 93.3861ZM200.374 111.597C199.728 111.597 199.172 111.48 198.707 111.246C198.243 111.012 197.884 110.697 197.632 110.3C197.382 109.9 197.258 109.449 197.258 108.947C197.258 108.569 197.335 108.233 197.489 107.941C197.646 107.648 197.861 107.378 198.135 107.128C198.412 106.879 198.732 106.631 199.095 106.385L200.771 105.245C201.017 105.085 201.203 104.916 201.33 104.737C201.459 104.558 201.523 104.349 201.523 104.109C201.523 103.906 201.437 103.714 201.265 103.532C201.096 103.351 200.862 103.26 200.563 103.26C200.363 103.26 200.186 103.307 200.032 103.403C199.881 103.495 199.763 103.617 199.677 103.768C199.594 103.918 199.552 104.078 199.552 104.248C199.552 104.454 199.609 104.663 199.723 104.875C199.84 105.088 199.991 105.308 200.175 105.536C200.363 105.763 200.563 106.005 200.776 106.26L205.212 111.459H203.402L199.718 107.239C199.444 106.919 199.18 106.604 198.924 106.293C198.672 105.982 198.464 105.659 198.301 105.323C198.141 104.985 198.061 104.619 198.061 104.225C198.061 103.778 198.164 103.38 198.37 103.029C198.577 102.675 198.864 102.396 199.234 102.193C199.606 101.99 200.042 101.889 200.54 101.889C201.039 101.889 201.466 101.987 201.823 102.184C202.18 102.381 202.456 102.643 202.65 102.969C202.844 103.295 202.941 103.651 202.941 104.035C202.941 104.482 202.83 104.882 202.608 105.236C202.387 105.586 202.079 105.905 201.685 106.191L199.774 107.59C199.46 107.818 199.235 108.049 199.1 108.282C198.964 108.513 198.897 108.71 198.897 108.873C198.897 109.123 198.96 109.349 199.086 109.552C199.212 109.755 199.389 109.918 199.617 110.041C199.848 110.161 200.117 110.221 200.425 110.221C200.763 110.221 201.097 110.146 201.426 109.995C201.756 109.841 202.056 109.623 202.327 109.34C202.597 109.056 202.813 108.718 202.973 108.324C203.133 107.927 203.213 107.487 203.213 107.004H204.649C204.649 107.601 204.583 108.121 204.45 108.564C204.318 109.004 204.147 109.377 203.938 109.681C203.729 109.983 203.507 110.224 203.273 110.406C203.199 110.458 203.128 110.511 203.061 110.563C202.993 110.615 202.922 110.668 202.848 110.72C202.516 111.022 202.127 111.243 201.68 111.385C201.237 111.526 200.802 111.597 200.374 111.597ZM152.377 116.603C152.334 116.2 152.152 115.886 151.832 115.661C151.515 115.437 151.103 115.324 150.595 115.324C150.238 115.324 149.932 115.378 149.676 115.486C149.421 115.594 149.225 115.74 149.09 115.924C148.954 116.109 148.885 116.32 148.882 116.557C148.882 116.754 148.927 116.925 149.016 117.069C149.108 117.214 149.233 117.337 149.39 117.439C149.547 117.537 149.721 117.62 149.912 117.688C150.102 117.756 150.295 117.813 150.489 117.859L151.375 118.08C151.732 118.163 152.075 118.276 152.404 118.417C152.737 118.559 153.034 118.737 153.295 118.953C153.56 119.168 153.769 119.428 153.923 119.733C154.077 120.038 154.154 120.395 154.154 120.804C154.154 121.358 154.012 121.846 153.729 122.268C153.446 122.686 153.037 123.014 152.501 123.251C151.969 123.485 151.324 123.602 150.567 123.602C149.832 123.602 149.193 123.488 148.651 123.26C148.113 123.032 147.691 122.7 147.386 122.263C147.085 121.826 146.922 121.293 146.897 120.666H148.582C148.607 120.995 148.708 121.269 148.887 121.487C149.065 121.706 149.298 121.869 149.584 121.977C149.873 122.084 150.196 122.138 150.553 122.138C150.926 122.138 151.252 122.083 151.532 121.972C151.815 121.858 152.037 121.701 152.197 121.501C152.357 121.298 152.438 121.061 152.441 120.79C152.438 120.544 152.366 120.341 152.224 120.181C152.083 120.018 151.884 119.882 151.629 119.775C151.376 119.664 151.081 119.565 150.742 119.479L149.667 119.202C148.888 119.002 148.273 118.699 147.82 118.293C147.371 117.883 147.146 117.34 147.146 116.663C147.146 116.106 147.297 115.618 147.599 115.2C147.903 114.781 148.317 114.456 148.84 114.226C149.364 113.992 149.956 113.875 150.618 113.875C151.289 113.875 151.877 113.992 152.381 114.226C152.889 114.456 153.288 114.778 153.577 115.19C153.866 115.6 154.016 116.071 154.025 116.603H152.377ZM160.647 120.476V116.368H162.318V123.459H160.697V122.198H160.624C160.464 122.595 160.2 122.92 159.834 123.172C159.471 123.425 159.023 123.551 158.491 123.551C158.026 123.551 157.615 123.448 157.258 123.242C156.904 123.032 156.627 122.729 156.427 122.332C156.227 121.932 156.127 121.449 156.127 120.883V116.368H157.798V120.624C157.798 121.073 157.921 121.43 158.168 121.695C158.414 121.96 158.737 122.092 159.137 122.092C159.383 122.092 159.622 122.032 159.853 121.912C160.083 121.792 160.273 121.614 160.42 121.377C160.571 121.136 160.647 120.836 160.647 120.476ZM164.556 126.118V116.368H166.2V117.54H166.297C166.383 117.368 166.504 117.185 166.661 116.991C166.818 116.794 167.031 116.626 167.298 116.488C167.566 116.346 167.908 116.275 168.323 116.275C168.871 116.275 169.365 116.415 169.805 116.695C170.248 116.972 170.599 117.383 170.858 117.928C171.119 118.47 171.25 119.134 171.25 119.922C171.25 120.701 171.122 121.363 170.867 121.907C170.612 122.452 170.264 122.868 169.824 123.154C169.384 123.44 168.885 123.583 168.328 123.583C167.922 123.583 167.585 123.516 167.317 123.38C167.049 123.245 166.834 123.082 166.671 122.891C166.511 122.697 166.386 122.514 166.297 122.341H166.227V126.118H164.556ZM166.195 119.913C166.195 120.372 166.26 120.773 166.389 121.118C166.521 121.463 166.711 121.732 166.957 121.926C167.206 122.117 167.508 122.212 167.862 122.212C168.231 122.212 168.54 122.114 168.79 121.917C169.039 121.717 169.227 121.444 169.353 121.1C169.482 120.752 169.547 120.356 169.547 119.913C169.547 119.473 169.484 119.082 169.357 118.741C169.231 118.399 169.043 118.131 168.794 117.937C168.545 117.743 168.234 117.646 167.862 117.646C167.505 117.646 167.202 117.74 166.952 117.928C166.703 118.116 166.514 118.379 166.384 118.717C166.258 119.056 166.195 119.455 166.195 119.913ZM173.201 126.118V116.368H174.845V117.54H174.942C175.028 117.368 175.149 117.185 175.306 116.991C175.463 116.794 175.676 116.626 175.943 116.488C176.211 116.346 176.553 116.275 176.968 116.275C177.516 116.275 178.01 116.415 178.45 116.695C178.893 116.972 179.244 117.383 179.503 117.928C179.764 118.47 179.895 119.134 179.895 119.922C179.895 120.701 179.767 121.363 179.512 121.907C179.257 122.452 178.909 122.868 178.469 123.154C178.029 123.44 177.53 123.583 176.973 123.583C176.567 123.583 176.23 123.516 175.962 123.38C175.694 123.245 175.479 123.082 175.316 122.891C175.156 122.697 175.031 122.514 174.942 122.341H174.872V126.118H173.201ZM174.84 119.913C174.84 120.372 174.905 120.773 175.034 121.118C175.166 121.463 175.356 121.732 175.602 121.926C175.851 122.117 176.153 122.212 176.507 122.212C176.876 122.212 177.185 122.114 177.435 121.917C177.684 121.717 177.872 121.444 177.998 121.1C178.127 120.752 178.192 120.356 178.192 119.913C178.192 119.473 178.129 119.082 178.002 118.741C177.876 118.399 177.688 118.131 177.439 117.937C177.19 117.743 176.879 117.646 176.507 117.646C176.15 117.646 175.847 117.74 175.597 117.928C175.348 118.116 175.159 118.379 175.029 118.717C174.903 119.056 174.84 119.455 174.84 119.913ZM183.517 114.004V123.459H181.846V114.004H183.517ZM185.756 123.459V116.368H187.427V123.459H185.756ZM186.596 115.361C186.331 115.361 186.104 115.274 185.913 115.098C185.722 114.92 185.627 114.706 185.627 114.456C185.627 114.204 185.722 113.99 185.913 113.815C186.104 113.636 186.331 113.547 186.596 113.547C186.864 113.547 187.092 113.636 187.279 113.815C187.47 113.99 187.566 114.204 187.566 114.456C187.566 114.706 187.47 114.92 187.279 115.098C187.092 115.274 186.864 115.361 186.596 115.361ZM192.805 123.597C192.094 123.597 191.48 123.449 190.963 123.154C190.449 122.855 190.053 122.434 189.776 121.889C189.499 121.341 189.361 120.696 189.361 119.955C189.361 119.225 189.499 118.585 189.776 118.034C190.056 117.48 190.447 117.049 190.949 116.742C191.451 116.431 192.04 116.275 192.717 116.275C193.154 116.275 193.567 116.346 193.954 116.488C194.345 116.626 194.69 116.842 194.988 117.134C195.29 117.426 195.527 117.799 195.699 118.251C195.872 118.701 195.958 119.236 195.958 119.858V120.37H190.146V119.244H194.356C194.353 118.924 194.284 118.639 194.148 118.39C194.013 118.137 193.823 117.939 193.58 117.794C193.34 117.65 193.06 117.577 192.74 117.577C192.399 117.577 192.098 117.66 191.84 117.826C191.581 117.99 191.38 118.205 191.235 118.473C191.094 118.737 191.021 119.028 191.018 119.345V120.329C191.018 120.741 191.094 121.095 191.244 121.39C191.395 121.683 191.606 121.907 191.877 122.064C192.148 122.218 192.465 122.295 192.828 122.295C193.071 122.295 193.291 122.261 193.488 122.194C193.685 122.123 193.856 122.02 194 121.884C194.145 121.749 194.254 121.581 194.328 121.381L195.889 121.557C195.79 121.969 195.602 122.329 195.325 122.637C195.051 122.942 194.701 123.179 194.273 123.348C193.845 123.514 193.356 123.597 192.805 123.597ZM203.496 118.242L201.973 118.408C201.93 118.254 201.854 118.11 201.746 117.974C201.642 117.839 201.5 117.73 201.322 117.646C201.143 117.563 200.925 117.522 200.666 117.522C200.318 117.522 200.026 117.597 199.789 117.748C199.555 117.899 199.44 118.094 199.443 118.334C199.44 118.541 199.515 118.708 199.669 118.837C199.826 118.967 200.084 119.073 200.445 119.156L201.654 119.415C202.325 119.559 202.824 119.788 203.15 120.102C203.479 120.416 203.645 120.827 203.648 121.335C203.645 121.781 203.514 122.175 203.256 122.517C203.001 122.855 202.645 123.12 202.19 123.311C201.734 123.502 201.211 123.597 200.62 123.597C199.752 123.597 199.053 123.416 198.524 123.052C197.995 122.686 197.679 122.177 197.578 121.524L199.207 121.367C199.281 121.687 199.438 121.929 199.678 122.092C199.918 122.255 200.231 122.337 200.615 122.337C201.012 122.337 201.331 122.255 201.571 122.092C201.814 121.929 201.936 121.727 201.936 121.487C201.936 121.284 201.857 121.116 201.7 120.984C201.546 120.852 201.306 120.75 200.98 120.679L199.771 120.426C199.09 120.284 198.587 120.045 198.261 119.71C197.935 119.371 197.773 118.944 197.776 118.427C197.773 117.99 197.892 117.611 198.132 117.291C198.375 116.968 198.712 116.719 199.143 116.543C199.577 116.365 200.077 116.275 200.643 116.275C201.474 116.275 202.128 116.452 202.605 116.806C203.085 117.16 203.382 117.639 203.496 118.242ZM209.365 123.459V114.004H212.91C213.637 114.004 214.246 114.139 214.738 114.41C215.234 114.681 215.608 115.054 215.86 115.527C216.116 115.998 216.243 116.534 216.243 117.134C216.243 117.74 216.116 118.279 215.86 118.75C215.605 119.221 215.228 119.592 214.729 119.862C214.231 120.13 213.617 120.264 212.887 120.264H210.537V118.856H212.656C213.081 118.856 213.429 118.782 213.7 118.634C213.971 118.487 214.171 118.284 214.3 118.025C214.432 117.766 214.498 117.469 214.498 117.134C214.498 116.799 214.432 116.503 214.3 116.248C214.171 115.992 213.969 115.794 213.695 115.652C213.424 115.507 213.075 115.435 212.647 115.435H211.078V123.459H209.365ZM221.718 116.368V117.66H217.642V116.368H221.718ZM218.648 114.669H220.319V121.326C220.319 121.55 220.353 121.723 220.421 121.843C220.492 121.96 220.584 122.04 220.698 122.083C220.812 122.126 220.938 122.148 221.076 122.148C221.181 122.148 221.276 122.14 221.363 122.124C221.452 122.109 221.52 122.095 221.566 122.083L221.847 123.389C221.758 123.42 221.63 123.454 221.464 123.491C221.301 123.528 221.101 123.549 220.864 123.556C220.445 123.568 220.068 123.505 219.733 123.366C219.397 123.225 219.131 123.006 218.934 122.711C218.74 122.415 218.645 122.046 218.648 121.603V114.669ZM224.674 126.118C224.447 126.118 224.236 126.099 224.042 126.062C223.851 126.028 223.699 125.988 223.585 125.942L223.973 124.64C224.216 124.711 224.433 124.745 224.624 124.742C224.814 124.739 224.982 124.679 225.127 124.562C225.275 124.448 225.399 124.257 225.501 123.989L225.644 123.606L223.072 116.368H224.845L226.479 121.723H226.553L228.192 116.368H229.97L227.13 124.317C226.998 124.693 226.823 125.014 226.604 125.282C226.386 125.553 226.118 125.759 225.801 125.901C225.487 126.045 225.111 126.118 224.674 126.118ZM235.464 123.459V114.004H237.177V122.023H241.341V123.459H235.464ZM246.523 116.368V117.66H242.446V116.368H246.523ZM243.453 114.669H245.124V121.326C245.124 121.55 245.158 121.723 245.225 121.843C245.296 121.96 245.389 122.04 245.502 122.083C245.616 122.126 245.742 122.148 245.881 122.148C245.986 122.148 246.081 122.14 246.167 122.124C246.256 122.109 246.324 122.095 246.37 122.083L246.652 123.389C246.563 123.42 246.435 123.454 246.269 123.491C246.106 123.528 245.906 123.549 245.669 123.556C245.25 123.568 244.873 123.505 244.538 123.366C244.202 123.225 243.936 123.006 243.739 122.711C243.545 122.415 243.45 122.046 243.453 121.603V114.669ZM250.996 123.583C250.438 123.583 249.94 123.44 249.5 123.154C249.06 122.868 248.712 122.452 248.456 121.907C248.201 121.363 248.073 120.701 248.073 119.922C248.073 119.134 248.203 118.47 248.461 117.928C248.723 117.383 249.075 116.972 249.518 116.695C249.961 116.415 250.455 116.275 251 116.275C251.416 116.275 251.757 116.346 252.025 116.488C252.293 116.626 252.505 116.794 252.662 116.991C252.819 117.185 252.941 117.368 253.027 117.54H253.096V114.004H254.772V123.459H253.128V122.341H253.027C252.941 122.514 252.816 122.697 252.653 122.891C252.49 123.082 252.274 123.245 252.007 123.38C251.739 123.516 251.402 123.583 250.996 123.583ZM251.462 122.212C251.816 122.212 252.117 122.117 252.367 121.926C252.616 121.732 252.805 121.463 252.934 121.118C253.064 120.773 253.128 120.372 253.128 119.913C253.128 119.455 253.064 119.056 252.934 118.717C252.808 118.379 252.621 118.116 252.371 117.928C252.125 117.74 251.822 117.646 251.462 117.646C251.089 117.646 250.779 117.743 250.529 117.937C250.28 118.131 250.092 118.399 249.966 118.741C249.84 119.082 249.777 119.473 249.777 119.913C249.777 120.356 249.84 120.752 249.966 121.1C250.095 121.444 250.285 121.717 250.534 121.917C250.786 122.114 251.096 122.212 251.462 122.212Z" fill="url(#paint7_linear_1_18)"/>
<defs>
<linearGradient id="paint0_linear_1_18" x1="18.7663" y1="0" x2="18.7663" y2="81.9401" gradientUnits="userSpaceOnUse">
<stop stop-color="#282828"/>
<stop offset="0.671459" stop-color="#A6A6A6"/>
<stop offset="1" stop-color="#575757"/>
</linearGradient>
<linearGradient id="paint1_linear_1_18" x1="39.6616" y1="0.458588" x2="39.6616" y2="82.3986" gradientUnits="userSpaceOnUse">
<stop stop-color="#282828"/>
<stop offset="0.671459" stop-color="#A6A6A6"/>
<stop offset="1" stop-color="#575757"/>
</linearGradient>
<linearGradient id="paint2_linear_1_18" x1="-4.98191e-07" y1="8.95859" x2="6.25" y2="54.4586" gradientUnits="userSpaceOnUse">
<stop/>
<stop offset="1" stop-color="#666666"/>
</linearGradient>
<linearGradient id="paint3_linear_1_18" x1="6" y1="8.95859" x2="12.25" y2="54.4586" gradientUnits="userSpaceOnUse">
<stop/>
<stop offset="1" stop-color="#666666"/>
</linearGradient>
<linearGradient id="paint4_linear_1_18" x1="305" y1="6.4585" x2="305" y2="30.4585" gradientUnits="userSpaceOnUse">
<stop stop-color="#2C2C2C"/>
<stop offset="1" stop-color="#737373"/>
</linearGradient>
<linearGradient id="paint5_linear_1_18" x1="265.54" y1="7.95859" x2="265.54" y2="76.4586" gradientUnits="userSpaceOnUse">
<stop stop-color="#2A2A2A"/>
<stop offset="1" stop-color="#737373"/>
</linearGradient>
<linearGradient id="paint6_linear_1_18" x1="161.5" y1="8.95859" x2="161.5" y2="76.4586" gradientUnits="userSpaceOnUse">
<stop stop-color="#272727"/>
<stop offset="1" stop-color="#737373"/>
</linearGradient>
<linearGradient id="paint7_linear_1_18" x1="102" y1="35.4586" x2="272" y2="136.959" gradientUnits="userSpaceOnUse">
<stop/>
<stop offset="0.5" stop-color="#6A6A6A"/>
<stop offset="0.978541" stop-color="#333333"/>
</linearGradient>
</defs>
</svg>
